<?xml version="1.0" encoding="UTF-8"?>
<svg xmlns="http://www.w3.org/2000/svg" viewBox="0 0 1366 768">
  <defs>
    <style>
      .cls-1 {
        stroke: #ed1c24;
      }

      .cls-1, .cls-2, .cls-3, .cls-4, .cls-5, .cls-6 {
        fill: none;
      }

      .cls-1, .cls-2, .cls-3, .cls-5, .cls-6 {
        stroke-linecap: round;
        stroke-miterlimit: 10;
        stroke-width: 2px;
      }

      .cls-2 {
        stroke: #0071bc;
      }

      .cls-3 {
        stroke: #00a99d;
      }

      .cls-5 {
        stroke: #e3ff8a;
      }

      .cls-6 {
        stroke: #29abe2;
      }
    </style>
  </defs>
  <g id="Layer_2" data-name="Layer 2">
    <rect class="cls-4" width="1366" height="768"/>
  </g>
  <g id="Layer_1" data-name="Layer 1">
    <line class="cls-5" x1="88.19" y1="681.5" x2="75.5" y2="694.19"/>
    <line class="cls-2" x1="1253" y1="66.5" x2="1238.5" y2="81"/>
    <path class="cls-1" d="m257.09,238.38l14.13-3.7c.46-.12.89.31.76.77l-3.7,13.46c-.12.45-.69.61-1.03.29l-10.43-9.76c-.36-.34-.21-.93.27-1.06Z"/>
    <path class="cls-5" d="m1160.21,686.34l17.81-4.66c.59-.15,1.12.39.96.97l-4.66,16.96c-.16.57-.86.77-1.3.37l-13.14-12.29c-.45-.42-.26-1.18.34-1.33Z"/>
    <rect class="cls-6" x="531" y="44" width="16" height="15.2" rx="1.07" ry="1.07"/>
    <g>
      <line class="cls-6" x1="202.42" y1="525" x2="194" y2="535"/>
      <line class="cls-6" x1="203.74" y1="535" x2="194" y2="525.95"/>
    </g>
    <g>
      <line class="cls-5" x1="857.78" y1="118" x2="850" y2="127.24"/>
      <line class="cls-5" x1="859" y1="127.24" x2="850" y2="118.88"/>
    </g>
    <path class="cls-5" d="m89,79.98l.02-.09c2.1-7.64,12.97-7.58,14.98.09h0"/>
    <path class="cls-3" d="m897,590.75l.03-.1c2.38-8.66,14.69-8.59,16.97.1h0"/>
    <path class="cls-1" d="m445,675.93c.4-.13,1.2-.13,2,.67,1.17,1.17,2.4,4,3.6,4,3.6,0,2.8-4.8,6.4-4.8,3.2,0,3.26,4.34,5.23,4.82,3.17.78,3.17-2.82,4.37-4.02,1.41-1.41,2.4-.8,2.4-.8"/>
    <path class="cls-6" d="m954,377.9c.35-.12,1.04-.12,1.73.58,1.01,1.01,2.07,3.45,3.11,3.45,3.11,0,2.42-4.14,5.52-4.14,2.76,0,2.81,3.74,4.51,4.16,2.74.67,2.74-2.43,3.77-3.47,1.22-1.22,2.07-.69,2.07-.69"/>
  </g>
</svg>